<svg xmlns="http://www.w3.org/2000/svg" viewBox="0 0 713 176" height="188" width="761">
  <path d="M161 105c-3 13-22 26-44 29-12 1-23 3-35 2-20-1-35-5-35-5v6c3 19 19 21 35 21 16 1 31-4 31-4v15s-11 6-31 7c-11 0-25-1-41-5-34-9-40-46-41-83V58C0 20 25 8 25 8c13-5 34-8 57-8s44 3 57 8c0 0 25 12 25 50 0 0 0 28-3 47" fill="#3088d4"/>
  <path d="M35 48a10 10 0 1 1 20 0 10 10 0 0 1-20 0m144 13v46h-18V62c0-9-4-14-12-14-9 0-14 5-14 17v24h-18V65c0-12-4-17-13-17-8 0-12 5-12 14v45H74V61c0-10 2-17 7-23 5-5 12-8 20-8 9 0 16 3 21 11l4 7 5-7c5-8 12-11 21-11 8 0 15 3 20 8 4 6 7 13 7 23m63 23c4-4 6-9 6-15s-2-11-6-15-8-6-14-6-10 2-14 6c-3 4-5 9-5 15s2 11 5 15c4 4 8 5 14 5s10-1 14-5m6-52h18v74h-18v-9c-6 7-14 11-23 11-10 0-18-4-24-12-7-7-10-16-10-27s3-21 10-28c6-8 14-11 24-11 9 0 17 3 23 10v-8zm78 35c6 4 8 10 8 17s-3 13-8 18c-5 4-12 6-20 6-14 0-24-6-29-18l15-9c2 6 7 9 14 9 6 0 10-2 10-6 0-3-5-6-13-8l-8-3-8-4c-5-4-7-9-7-16s2-13 7-17 12-6 19-6c12 0 21 5 27 15l-16 9c-2-5-6-7-11-7s-8 2-8 6c0 3 4 6 13 8 6 1 11 3 15 6m58-17h-16v31c0 3 1 6 4 7h12v18c-13 1-21 0-27-4-5-4-7-11-7-21V50h-12V32h12V17l18-6v21h16v18zm57 33c4-4 6-9 6-14 0-6-2-11-6-15s-8-6-13-6c-6 0-10 2-14 6s-5 9-5 15c0 5 1 10 5 14s8 6 14 6c5 0 9-2 13-6m-40 13c-7-7-10-16-10-27s3-21 10-28c7-8 16-11 27-11 10 0 19 3 26 11 7 7 11 17 11 28s-4 20-11 27c-7 8-16 12-26 12-11 0-20-4-27-12m124-12c4-4 5-9 5-15s-1-11-5-15-8-6-14-6-10 2-14 6-5 9-5 15 1 11 5 15 9 5 14 5c6 0 10-1 14-5m5-82h18v104h-18v-9c-5 7-12 11-22 11s-18-4-24-12c-7-7-10-16-10-27s3-21 10-28c6-8 14-11 24-11s17 3 22 10V2zm82 81c3-4 5-9 5-14 0-6-2-11-5-15-4-4-8-6-14-6-5 0-10 2-13 6-4 4-6 9-6 15 0 5 2 10 6 14 3 4 8 6 13 6 6 0 10-2 14-6m-40 13c-7-7-11-16-11-27s4-21 11-28c7-8 16-11 26-11 11 0 19 3 27 11 7 7 10 17 10 28s-3 20-10 27c-8 8-16 12-27 12-10 0-19-4-26-12m141-36v46h-18V63c0-5-1-9-3-12-3-2-6-4-11-4-10 0-15 6-15 19v40h-18V32h18v8c4-7 11-10 21-10 8 0 14 2 19 8 5 5 7 13 7 22" fill="#fff"/>
</svg>
